# xmcd
# 
# Track frame offsets:
#     150
#     10911
#     27772
#     43221
#     56879
#     69646
#     84985
#     101378
#     117284
#     129635
#     142044
#     160072
#     176209
#     197282
#     209979
#     228137
#     246517
#     264819
#     284027
#     302761
#     316448
#     336602
# 
# Disc length: 4678
# 
# Revision: 3
# Processed by: cddbd v1.5.2PL0 Copyright (c) Steve Scherf et al.
# Submitted via: fre:ac v1.0.17
# 
DISCID=4e124416
DTITLE=אמנים שונים - ארבע אחה''צ - דיסק 3 - עוד חוזר הניגון
DYEAR=2005
DGENRE=Classic Israeli
TTITLE0=חוה אלברשטיין - עוד חוזר הניגון
TTITLE1=הלהקה - שלווה
TTITLE2=הדודאים והפרברים - תלבשי לבן
TTITLE3=בני אמדורסקי - אני גיטרה
TTITLE4=חנן יובל - אתם זוכרים את השירים
TTITLE5=נורית גלרון - ילדות נשכחת
TTITLE6=חוה אלברשטיין - פנס בודד
TTITLE7=יהורם גאון - יש מקום
TTITLE8=ליאור ייני - מעבר לים
TTITLE9=אריק סיני - הבתים שנגמרו ליד הים
TTITLE10=שלמה יידוב - ימים לבנים
TTITLE11=חנן יובל ודודו אלהרר - הימים שעוד נכונו לנו
TTITLE12=יוריק בן דוד - לילה לי
TTITLE13=רוחמה רז - חלומות
TTITLE14=יהודית רביץ - וידוי
TTITLE15=נורית גלרון - בלדה לאישה
TTITLE16=חוה אלברשטיין - שיר משמר
TTITLE17=אריק איינשטיין - פגישה לאין קץ
TTITLE18=יהורם גאון - ניגון עתיק
TTITLE19=מתי כספי וסשה ארגוב - שיר ערש
TTITLE20=חבורת הזמר של פיקוד הצפון - בלילה על הדשא
TTITLE21=להקת הנח''ל - ארבע אחרי הצהריים
EXTD=YEAR: 2005
EXTT0=
EXTT1=
EXTT2=
EXTT3=
EXTT4=
EXTT5=
EXTT6=
EXTT7=
EXTT8=
EXTT9=
EXTT10=
EXTT11=
EXTT12=
EXTT13=
EXTT14=
EXTT15=
EXTT16=
EXTT17=
EXTT18=
EXTT19=
EXTT20=
EXTT21=
PLAYORDER=
